<?xml version="1.0" standalone="no"?><!DOCTYPE svg PUBLIC "-//W3C//DTD SVG 1.1//EN" "http://www.w3.org/Graphics/SVG/1.1/DTD/svg11.dtd"><svg height="1024" node-id="1" sillyvg="true" template-height="1024" template-width="1024" version="1.1" viewBox="0 0 1024 1024" width="1024" xmlns="http://www.w3.org/2000/svg" xmlns:xlink="http://www.w3.org/1999/xlink"><defs node-id="94"><linearGradient gradientUnits="userSpaceOnUse" id="SVGID_1_" node-id="6" spreadMethod="pad" x1="512.9998" x2="512.9998" y1="666.8418" y2="982.5475"><stop offset="0" stop-color="#dee3f0"></stop><stop offset="0.03981841" stop-color="#e1e6f1" stop-opacity="0.9602"></stop><stop offset="0.3162" stop-color="#f2f4f9" stop-opacity="0.6838"></stop><stop offset="0.6198" stop-color="#fcfcfe" stop-opacity="0.3802"></stop><stop offset="1" stop-color="#ffffff" stop-opacity="0"></stop></linearGradient><linearGradient gradientUnits="userSpaceOnUse" id="SVGID_2_" node-id="23" spreadMethod="pad" x1="332.8282" x2="332.8282" y1="760.3292" y2="722.2387"><stop offset="0" stop-color="#bcc0cc"></stop><stop offset="0.9894" stop-color="#ffffff" stop-opacity="0"></stop></linearGradient><linearGradient gradientUnits="userSpaceOnUse" id="SVGID_3_" node-id="27" spreadMethod="pad" x1="469.0902" x2="469.0902" y1="760.3292" y2="711.4995"><stop offset="0" stop-color="#bcc0cc"></stop><stop offset="0.9894" stop-color="#ffffff" stop-opacity="0"></stop></linearGradient><linearGradient gradientUnits="userSpaceOnUse" id="SVGID_4_" node-id="31" spreadMethod="pad" x1="714.7909" x2="725.0718" y1="766.5892" y2="733.8448"><stop offset="0" stop-color="#bcc0cc"></stop><stop offset="0.9894" stop-color="#ffffff" stop-opacity="0"></stop></linearGradient><linearGradient gradientTransform="matrix(0.9493 0.3144 -0.3144 0.9493 177.8726 -203.8375)" gradientUnits="userSpaceOnUse" id="SVGID_5_" node-id="37" spreadMethod="pad" x1="709.6025" x2="709.6025" y1="332.0807" y2="170.2495"><stop offset="0" stop-color="#ecf0f7"></stop><stop offset="0.3451" stop-color="#e9edf5"></stop><stop offset="0.5923" stop-color="#e0e5ee"></stop><stop offset="0.8081" stop-color="#d0d7e3"></stop><stop offset="1" stop-color="#bbc4d4"></stop></linearGradient><linearGradient gradientTransform="matrix(0.9493 0.3144 -0.3144 0.9493 177.8726 -203.8375)" gradientUnits="userSpaceOnUse" id="SVGID_6_" node-id="44" spreadMethod="pad" x1="709.6024" x2="709.6024" y1="324.921" y2="231.3456"><stop offset="0" stop-color="#e8eef7"></stop><stop offset="1" stop-color="#d4d8e6"></stop></linearGradient><linearGradient gradientTransform="matrix(0.9493 0.3144 -0.3144 0.9493 177.8726 -203.8375)" gradientUnits="userSpaceOnUse" id="SVGID_7_" node-id="48" spreadMethod="pad" x1="709.6025" x2="709.6025" y1="332.0807" y2="238.5054"><stop offset="0" stop-color="#dce2eb"></stop><stop offset="1" stop-color="#b8bdcc"></stop></linearGradient><linearGradient gradientTransform="matrix(0.9493 0.3144 -0.3144 0.9493 177.8726 -203.8375)" gradientUnits="userSpaceOnUse" id="SVGID_8_" node-id="52" spreadMethod="pad" x1="500.4621" x2="909.2811" y1="419.8582" y2="419.8582"><stop offset="0" stop-color="#d1dae8"></stop><stop offset="0.497" stop-color="#ffffff" stop-opacity="0"></stop><stop offset="1" stop-color="#c7cfd9"></stop></linearGradient><linearGradient gradientTransform="matrix(0.9493 0.3144 -0.3144 0.9493 177.8726 -203.8375)" gradientUnits="userSpaceOnUse" id="SVGID_9_" node-id="57" spreadMethod="pad" x1="709.6025" x2="709.6025" y1="307.2347" y2="263.3513"><stop offset="0" stop-color="#9facc2"></stop><stop offset="1" stop-color="#b8bdcc"></stop></linearGradient><linearGradient gradientUnits="userSpaceOnUse" id="SVGID_10_" node-id="61" spreadMethod="pad" x1="275.6592" x2="275.6592" y1="760.3292" y2="461.3033"><stop offset="0" stop-color="#8999ad"></stop><stop offset="1" stop-color="#bdc7d9"></stop></linearGradient><linearGradient gradientUnits="userSpaceOnUse" id="SVGID_11_" node-id="65" spreadMethod="pad" x1="282.8187" x2="282.8187" y1="760.3292" y2="461.3033"><stop offset="0" stop-color="#abb8c9"></stop><stop offset="1" stop-color="#cfd5e0"></stop></linearGradient><linearGradient gradientTransform="matrix(0.9541 0.2996 -0.2996 0.9541 181.0714 -190.4181)" gradientUnits="userSpaceOnUse" id="SVGID_12_" node-id="69" spreadMethod="pad" x1="748.4916" x2="748.4916" y1="753.1801" y2="454.1542"><stop offset="0" stop-color="#8999ad"></stop><stop offset="1" stop-color="#bdc7d9"></stop></linearGradient><linearGradient gradientTransform="matrix(0.9541 0.2996 -0.2996 0.9541 181.0714 -190.4181)" gradientUnits="userSpaceOnUse" id="SVGID_13_" node-id="73" spreadMethod="pad" x1="755.651" x2="755.651" y1="753.1801" y2="454.1542"><stop offset="0" stop-color="#abb8c9"></stop><stop offset="1" stop-color="#cfd5e0"></stop></linearGradient><linearGradient gradientUnits="userSpaceOnUse" id="SVGID_14_" node-id="77" spreadMethod="pad" x1="504.0135" x2="504.0135" y1="760.3292" y2="463.226"><stop offset="0" stop-color="#8999ad"></stop><stop offset="1" stop-color="#bdc7d9"></stop></linearGradient><linearGradient gradientUnits="userSpaceOnUse" id="SVGID_15_" node-id="81" spreadMethod="pad" x1="511.1729" x2="511.1729" y1="760.3292" y2="463.226"><stop offset="0" stop-color="#abb8c9"></stop><stop offset="1" stop-color="#cfd5e0"></stop></linearGradient><linearGradient gradientUnits="userSpaceOnUse" id="SVGID_16_" node-id="85" spreadMethod="pad" x1="201.0635" x2="201.0635" y1="312.1586" y2="279.0112"><stop offset="0" stop-color="#dce2eb"></stop><stop offset="1" stop-color="#b8bdcc"></stop></linearGradient><linearGradient gradientTransform="matrix(0.9561 0.293 -0.293 0.9561 162.7673 -168.9461)" gradientUnits="userSpaceOnUse" id="SVGID_17_" node-id="89" spreadMethod="pad" x1="266.8136" x2="266.8136" y1="468.9041" y2="446.8325"><stop offset="0" stop-color="#dce2eb"></stop><stop offset="1" stop-color="#b8bdcc"></stop></linearGradient></defs><g node-id="280"><path d="M 988.90 824.70 C 988.90 866.58 938.76 906.74 849.51 936.35 C 760.26 965.96 639.22 982.60 513.00 982.60 C 386.78 982.60 265.74 965.96 176.49 936.35 C 87.24 906.74 37.10 866.58 37.10 824.70 C 37.10 782.82 87.24 742.66 176.49 713.05 C 265.74 683.44 386.78 666.80 513.00 666.80 C 639.22 666.80 760.26 683.44 849.51 713.05 C 938.76 742.66 988.90 782.82 988.90 824.70 Z" fill="url(#SVGID_1_)" fill-rule="nonzero" group-id="1" node-id="215" stroke="none" target-height="315.8" target-width="951.80005" target-x="37.1" target-y="666.8"></path><g node-id="282"><path d="M 192.70 678.70 C 192.70 702.60 173.40 721.90 149.50 721.90 C 125.60 721.90 106.30 702.60 106.30 678.70 C 106.30 654.80 125.60 607.00 149.50 607.00 C 173.40 607.00 192.70 654.80 192.70 678.70 Z" fill="#e6eaf0" fill-rule="nonzero" group-id="1,3" node-id="219" stroke="none" target-height="114.900024" target-width="86.399994" target-x="106.3" target-y="607"></path><path d="M 169.20 672.80 C 167.80 672.10 166.20 672.70 165.50 674.10 L 152.20 701.00 L 152.20 650.20 C 152.20 648.70 151.00 647.40 149.40 647.40 C 147.90 647.40 146.60 648.60 146.60 650.20 L 146.60 676.20 L 132.50 662.00 C 131.40 660.90 129.70 660.90 128.60 662.00 C 127.50 663.10 127.50 664.80 128.60 665.90 L 145.70 683.00 C 146.00 683.30 146.30 683.30 146.70 683.40 L 146.70 758.60 C 146.70 760.10 147.90 761.40 149.50 761.40 C 151.00 761.40 152.30 760.20 152.30 758.60 L 152.30 713.40 L 170.50 676.50 C 171.10 675.10 170.60 673.50 169.20 672.80 Z" fill="#d0d6e0" fill-rule="nonzero" group-id="1,3" node-id="221" stroke="none" target-height="114" target-width="43.600006" target-x="127.5" target-y="647.4"></path></g><g node-id="283"><path d="M 881.70 683.90 C 881.70 703.40 865.90 719.20 846.40 719.20 C 826.90 719.20 811.10 703.40 811.10 683.90 C 811.10 664.40 826.90 625.30 846.40 625.30 C 865.90 625.40 881.70 664.40 881.70 683.90 Z" fill="#e6eaf0" fill-rule="nonzero" group-id="1,4" node-id="226" stroke="none" target-height="93.900024" target-width="70.60004" target-x="811.1" target-y="625.3"></path><path d="M 862.60 679.20 C 861.50 678.70 860.10 679.10 859.60 680.20 L 848.80 702.20 L 848.80 660.70 C 848.80 659.50 847.80 658.40 846.50 658.40 C 845.20 658.40 844.20 659.40 844.20 660.70 L 844.20 682.00 L 832.60 670.40 C 831.70 669.50 830.30 669.50 829.40 670.40 C 828.50 671.30 828.50 672.70 829.40 673.60 L 843.40 687.60 C 843.60 687.80 843.90 687.80 844.20 687.90 L 844.20 749.30 C 844.20 750.50 845.20 751.60 846.50 751.60 C 847.80 751.60 848.80 750.60 848.80 749.30 L 848.80 712.30 L 863.70 682.10 C 864.10 681.10 863.70 679.70 862.60 679.20 Z" fill="#d0d6e0" fill-rule="nonzero" group-id="1,4" node-id="228" stroke="none" target-height="93.19995" target-width="35.599976" target-x="828.5" target-y="658.4"></path></g><g node-id="284"><path d="M 928.50 770.10 C 928.50 784.60 916.70 796.40 902.20 796.40 C 887.70 796.40 875.90 784.60 875.90 770.10 C 875.90 755.60 887.70 726.40 902.20 726.40 C 916.70 726.40 928.50 755.60 928.50 770.10 Z" fill="#e6eaf0" fill-rule="nonzero" group-id="1,5" node-id="233" stroke="none" target-height="70" target-width="52.599976" target-x="875.9" target-y="726.4"></path><path d="M 914.20 766.50 C 913.40 766.10 912.40 766.40 911.90 767.30 L 903.80 783.70 L 903.80 752.70 C 903.80 751.80 903.00 751.00 902.10 751.00 C 901.20 751.00 900.40 751.80 900.40 752.70 L 900.40 768.60 L 891.70 759.90 C 891.00 759.20 890.00 759.20 889.30 759.90 C 888.60 760.60 888.60 761.60 889.30 762.30 L 899.70 772.70 C 899.90 772.90 900.10 772.90 900.30 772.90 L 900.30 818.70 C 900.30 819.60 901.10 820.40 902.00 820.40 C 902.90 820.40 903.70 819.60 903.70 818.70 L 903.70 791.10 L 914.80 768.60 C 915.40 767.90 915.00 766.90 914.20 766.50 Z" fill="#d0d6e0" fill-rule="nonzero" group-id="1,5" node-id="235" stroke="none" target-height="69.400024" target-width="26.800049" target-x="888.6" target-y="751"></path></g></g><g node-id="281"><path d="M 338.40 760.30 L 282.80 726.70 L 314.90 722.20 L 382.80 756.20 Z" fill="url(#SVGID_2_)" fill-rule="nonzero" group-id="2" node-id="241" stroke="none" target-height="38.099976" target-width="100" target-x="282.8" target-y="722.2"></path><path d="M 449.60 760.30 L 373.00 711.50 L 518.00 711.50 L 565.20 760.30" fill="url(#SVGID_3_)" fill-rule="nonzero" group-id="2" node-id="243" stroke="none" target-height="48.799988" target-width="192.20001" target-x="373" target-y="711.5"></path><path d="M 665.60 727.30 L 729.40 771.20 L 774.90 771.20 L 710.00 729.10 Z" fill="url(#SVGID_4_)" fill-rule="nonzero" group-id="2" node-id="245" stroke="none" target-height="43.900024" target-width="109.30005" target-x="665.6" target-y="727.3"></path><g node-id="285"><g node-id="286"><path d="M 853.40 257.70 C 853.40 302.38 817.18 338.60 772.50 338.60 C 727.82 338.60 691.60 302.38 691.60 257.70 C 691.60 213.02 727.82 176.80 772.50 176.80 C 817.18 176.80 853.40 213.02 853.40 257.70 Z" fill="url(#SVGID_5_)" fill-rule="nonzero" group-id="2,6,7" node-id="251" stroke="none" target-height="161.8" target-width="161.80005" target-x="691.6" target-y="176.8"></path><path d="M 927.80 337.50 C 935.90 313.00 869.20 268.80 778.70 238.80 C 688.20 208.80 608.30 204.40 600.20 229.00 L 597.90 235.80 L 599.80 236.40 C 604.80 261.70 667.30 300.50 749.20 327.60 C 831.10 354.70 904.40 360.90 923.50 343.60 L 925.40 344.20 L 927.80 337.50 Z" fill="url(#SVGID_6_)" fill-rule="nonzero" group-id="2,6,7" node-id="253" stroke="none" target-height="156.5" target-width="338" target-x="597.9" target-y="204.4"></path><path d="M 925.60 344.30 C 917.50 368.80 837.60 364.40 747.10 334.50 C 656.60 304.50 589.90 260.40 598.00 235.80 C 606.10 211.20 686.00 215.70 776.50 245.60 C 867.00 275.50 933.70 319.80 925.60 344.30 Z" fill="url(#SVGID_7_)" fill-rule="nonzero" group-id="2,6,7" node-id="255" stroke="none" target-height="157.59999" target-width="343.8" target-x="589.9" target-y="211.2"></path><path d="M 480.50 474.10 L 684.20 264.40 L 838.80 315.60 L 866.70 608.40 Z" fill="url(#SVGID_8_)" fill-rule="nonzero" group-id="2,6,7" node-id="257" stroke="none" target-height="344.00003" target-width="386.2" target-x="480.5" target-y="264.4"></path><path d="M 838.60 315.50 C 834.80 327.00 797.30 324.90 754.90 310.90 C 712.50 296.90 681.20 276.10 685.00 264.60 C 688.80 253.10 726.30 255.20 768.70 269.20 C 811.10 283.30 842.40 304.00 838.60 315.50 Z" fill="url(#SVGID_9_)" fill-rule="nonzero" group-id="2,6,7" node-id="259" stroke="none" target-height="73.899994" target-width="161.20001" target-x="681.2" target-y="253.1"></path></g><path d="M 375.70 756.20 L 343.30 462.40 L 350.30 461.30 L 343.10 461.30 L 343.10 461.30 L 305.90 465.40 L 323.50 625.60 L 230.60 635.80 L 213.00 476.80 L 220.10 475.70 L 212.90 475.70 L 175.60 479.80 L 194.10 647.30 L 227.30 673.90 L 234.50 673.90 L 234.20 673.10 L 327.70 662.80 L 338.40 760.30 L 345.60 760.30 L 345.60 759.50 Z" fill="url(#SVGID_10_)" fill-rule="nonzero" group-id="2,6" node-id="262" stroke="none" target-height="299" target-width="200.1" target-x="175.6" target-y="461.3"></path><path d="M 313.10 465.40 L 350.40 461.30 L 382.90 756.20 L 345.60 760.30 L 334.90 662.80 L 234.50 673.90 L 201.30 647.30 L 182.80 479.80 L 220.10 475.70 L 237.80 635.90 L 330.80 625.70 L 313.10 465.40 Z" fill="url(#SVGID_11_)" fill-rule="nonzero" group-id="2,6" node-id="264" stroke="none" target-height="299" target-width="200.09999" target-x="182.8" target-y="461.3"></path><path d="M 766.20 778.40 L 823.30 488.50 L 830.30 489.50 L 823.50 487.30 L 823.50 487.30 L 786.80 480.10 L 755.60 638.20 L 663.90 620.10 L 694.80 463.10 L 701.80 464.10 L 695.00 462.00 L 658.20 454.80 L 625.60 620.10 L 649.30 655.40 L 656.20 657.60 L 656.10 656.80 L 748.40 675.00 L 729.40 771.20 L 736.30 773.30 L 736.50 772.60 Z" fill="url(#SVGID_12_)" fill-rule="nonzero" group-id="2,6" node-id="266" stroke="none" target-height="323.60004" target-width="204.70001" target-x="625.6" target-y="454.8"></path><path d="M 793.60 482.20 L 830.40 489.40 L 773.10 780.50 L 736.30 773.30 L 755.30 677.10 L 656.20 657.60 L 632.50 622.30 L 665.00 456.90 L 701.80 464.10 L 670.70 622.20 L 762.50 640.30 L 793.60 482.20 Z" fill="url(#SVGID_13_)" fill-rule="nonzero" group-id="2,6" node-id="268" stroke="none" target-height="323.6" target-width="197.90002" target-x="632.5" target-y="456.9"></path><path d="M 450.00 463.20 L 558.40 463.20 L 588.10 493.30 L 588.10 730.70 L 558.00 760.30 L 449.60 760.30 L 419.90 730.60 L 419.90 492.90 L 450.00 463.20 Z M 550.60 722.80 L 550.60 500.70 L 457.50 500.70 L 457.50 722.80 L 550.60 722.80 Z" fill="url(#SVGID_14_)" fill-rule="nonzero" group-id="2,6" node-id="270" stroke="none" target-height="297.09998" target-width="168.19998" target-x="419.9" target-y="463.2"></path><path d="M 457.20 463.20 L 565.60 463.20 L 595.30 493.30 L 595.30 730.70 L 565.20 760.40 L 456.80 760.40 L 427.10 730.70 L 427.10 492.90 L 457.20 463.20 Z M 557.70 722.80 L 557.70 500.70 L 464.60 500.70 L 464.60 722.80 L 557.70 722.80 Z" fill="url(#SVGID_15_)" fill-rule="nonzero" group-id="2,6" node-id="272" stroke="none" target-height="297.2" target-width="168.19998" target-x="427.1" target-y="463.2"></path><path d="M 203.40 310.70 C 203.40 310.70 182.80 281.50 126.40 312.10 C 126.40 312.20 158.60 275.90 199.20 292.20 C 198.00 293.00 235.10 265.00 275.60 288.00 C 275.60 287.20 210.00 277.30 203.40 310.70 Z" fill="url(#SVGID_16_)" fill-rule="nonzero" group-id="2,6" node-id="274" stroke="none" target-height="47.200012" target-width="149.20001" target-x="126.4" target-y="265"></path><path d="M 282.30 357.10 C 282.30 357.10 274.90 334.50 233.00 343.00 C 233.00 343.00 260.60 326.20 283.20 344.60 C 282.30 344.90 311.30 334.30 332.70 356.80 C 332.80 356.20 293.00 337.10 282.30 357.10 Z" fill="url(#SVGID_17_)" fill-opacity="0.8" fill-rule="nonzero" group-id="2,6,8" node-id="278" stroke="none" target-height="30.899994" target-width="99.79999" target-x="233" target-y="326.2"></path></g></g></svg>