<?xml version="1.0" standalone="no"?><!DOCTYPE svg PUBLIC "-//W3C//DTD SVG 1.1//EN" "http://www.w3.org/Graphics/SVG/1.1/DTD/svg11.dtd"><svg t="1683528693830" class="icon" viewBox="0 0 1024 1024" version="1.1" xmlns="http://www.w3.org/2000/svg" p-id="1628" xmlns:xlink="http://www.w3.org/1999/xlink" width="200" height="200"><path d="M512 160c188.544 0 359.168 117.312 512 352-152.832 234.688-323.456 352-512 352-188.544 0-359.168-117.312-512-352 152.832-234.688 323.456-352 512-352z m0 64C357.12 224 212.48 317.568 77.12 512 212.48 706.432 357.12 800 512 800s299.52-93.568 434.88-288C811.52 317.568 666.88 224 512 224z m0 128a160 160 0 1 1 0 320 160 160 0 0 1 0-320z m0 64a96 96 0 1 0 0 192 96 96 0 0 0 0-192z" p-id="1629"></path></svg>